<?xml version="1.0" encoding="UTF-8" standalone="no"?>
<!-- Created with Inkscape (http://www.inkscape.org/) -->

<svg
   width="9.5437107mm"
   height="12.512215mm"
   viewBox="0 0 9.5437107 12.512215"
   version="1.1"
   id="svg5"
   inkscape:version="1.2.2 (732a01da63, 2022-12-09)"
   sodipodi:docname="marker.svg"
   xmlns:inkscape="http://www.inkscape.org/namespaces/inkscape"
   xmlns:sodipodi="http://sodipodi.sourceforge.net/DTD/sodipodi-0.dtd"
   xmlns="http://www.w3.org/2000/svg"
   xmlns:svg="http://www.w3.org/2000/svg">
  <sodipodi:namedview
     id="namedview7"
     pagecolor="#505050"
     bordercolor="#ffffff"
     borderopacity="1"
     inkscape:showpageshadow="0"
     inkscape:pageopacity="0"
     inkscape:pagecheckerboard="1"
     inkscape:deskcolor="#505050"
     inkscape:document-units="mm"
     showgrid="false"
     showguides="true"
     inkscape:zoom="10.35098"
     inkscape:cx="7.5838231"
     inkscape:cy="36.759805"
     inkscape:window-width="1350"
     inkscape:window-height="1230"
     inkscape:window-x="1381"
     inkscape:window-y="73"
     inkscape:window-maximized="0"
     inkscape:current-layer="layer2" />
  <defs
     id="defs2" />
  <g
     inkscape:groupmode="layer"
     id="layer2"
     inkscape:label="Layer 2"
     transform="translate(0.0671858,0.055979)">
    <path
       id="path649"
       style="fill:#733021;fill-opacity:1;stroke:#000000;stroke-width:0.210734;stroke-opacity:1"
       d="m 4.7095429,0.049388 c -2.5693,0 -4.36878196,1.982522 -4.65242896,4.390947 -0.357856,3.038537 4.58783396,7.87032 4.58783396,7.87032 0,0 4.97212,-4.627294 4.716508,-7.87032 -0.19055,-2.417572 -2.08261,-4.390947 -4.651913,-4.390947 z m 0.111105,3.181201 A 1.7381607,1.6870383 0 0 1 6.5585259,4.917825 1.7381607,1.6870383 0 0 1 4.8206479,6.60506 1.7381607,1.6870383 0 0 1 3.0822529,4.917825 1.7381607,1.6870383 0 0 1 4.8206479,3.230589 Z" />
  </g>
</svg>
